<mxfile host="Electron" agent="Mozilla/5.0 (Macintosh; Intel Mac OS X 10_15_7) AppleWebKit/537.36 (KHTML, like Gecko) draw.io/28.1.2 Chrome/138.0.7204.243 Electron/37.4.0 Safari/537.36" version="28.1.2">
  <diagram name="Page-1" id="vrSbMdwFp-cPvmtlHC6X">
    <mxGraphModel dx="2033" dy="2101" grid="1" gridSize="10" guides="1" tooltips="1" connect="1" arrows="1" fold="1" page="1" pageScale="1" pageWidth="850" pageHeight="1100" math="0" shadow="0">
      <root>
        <mxCell id="0" />
        <mxCell id="1" parent="0" />
        <mxCell id="HKkzcW7UrxEy5_cRLz85-1" value="&lt;p class=&quot;p1&quot; style=&quot;margin: 0px; font-variant-numeric: normal; font-variant-east-asian: normal; font-variant-alternates: normal; font-size-adjust: none; font-kerning: auto; font-optical-sizing: auto; font-feature-settings: normal; font-variation-settings: normal; font-variant-position: normal; font-variant-emoji: normal; font-stretch: normal; line-height: normal; font-family: Menlo; color: rgb(11, 79, 121); background-color: rgb(255, 255, 255);&quot;&gt;ErrorInfoIterable&lt;span class=&quot;s1&quot; style=&quot;color: rgba(0, 0, 0, 0.85);&quot;&gt;&amp;lt;&lt;/span&gt;&lt;span class=&quot;s2&quot; style=&quot;color: rgb(57, 0, 160);&quot;&gt;Key&lt;/span&gt;&lt;span class=&quot;s1&quot; style=&quot;color: rgba(0, 0, 0, 0.85);&quot;&gt;, &lt;/span&gt;&lt;span class=&quot;s2&quot; style=&quot;color: rgb(57, 0, 160);&quot;&gt;Value&lt;/span&gt;&lt;span class=&quot;s1&quot; style=&quot;color: rgba(0, 0, 0, 0.85);&quot;&gt;&amp;gt;&lt;/span&gt;&lt;/p&gt;" style="rounded=0;whiteSpace=wrap;html=1;fontStyle=1;align=center;" parent="1" vertex="1">
          <mxGeometry x="320" y="120" width="280" height="40" as="geometry" />
        </mxCell>
        <mxCell id="HKkzcW7UrxEy5_cRLz85-2" value="&lt;p class=&quot;p1&quot; style=&quot;margin: 0px; font-variant-numeric: normal; font-variant-east-asian: normal; font-variant-alternates: normal; font-size-adjust: none; font-kerning: auto; font-optical-sizing: auto; font-feature-settings: normal; font-variation-settings: normal; font-variant-position: normal; font-variant-emoji: normal; font-stretch: normal; line-height: normal; font-family: Menlo; color: rgb(11, 79, 121); background-color: rgb(255, 255, 255);&quot;&gt;ErrorInfoPrototype&lt;span class=&quot;s1&quot; style=&quot;color: rgba(0, 0, 0, 0.85);&quot;&gt;&amp;lt;&lt;/span&gt;&lt;span class=&quot;s2&quot; style=&quot;color: rgb(57, 0, 160);&quot;&gt;Key&lt;/span&gt;&lt;span class=&quot;s1&quot; style=&quot;color: rgba(0, 0, 0, 0.85);&quot;&gt;, &lt;/span&gt;&lt;span class=&quot;s2&quot; style=&quot;color: rgb(57, 0, 160);&quot;&gt;Value&lt;/span&gt;&lt;span class=&quot;s1&quot; style=&quot;color: rgba(0, 0, 0, 0.85);&quot;&gt;&amp;gt;&lt;/span&gt;&lt;/p&gt;" style="rounded=0;whiteSpace=wrap;html=1;fontStyle=1;align=center;" parent="1" vertex="1">
          <mxGeometry x="280" y="360" width="280" height="40" as="geometry" />
        </mxCell>
        <mxCell id="HKkzcW7UrxEy5_cRLz85-5" value="" style="endArrow=block;startArrow=none;endFill=0;startFill=0;endSize=8;html=1;verticalAlign=bottom;labelBackgroundColor=none;rounded=0;entryX=0.5;entryY=1;entryDx=0;entryDy=0;exitX=0.5;exitY=0;exitDx=0;exitDy=0;" parent="1" source="HKkzcW7UrxEy5_cRLz85-2" target="HKkzcW7UrxEy5_cRLz85-1" edge="1">
          <mxGeometry width="160" relative="1" as="geometry">
            <mxPoint x="180" y="560" as="sourcePoint" />
            <mxPoint x="340" y="560" as="targetPoint" />
          </mxGeometry>
        </mxCell>
        <mxCell id="HKkzcW7UrxEy5_cRLz85-7" value="" style="endArrow=block;startArrow=none;endFill=0;startFill=0;endSize=8;html=1;verticalAlign=bottom;labelBackgroundColor=none;rounded=0;entryX=0.5;entryY=1;entryDx=0;entryDy=0;exitX=0.5;exitY=0;exitDx=0;exitDy=0;" parent="1" target="HKkzcW7UrxEy5_cRLz85-2" edge="1">
          <mxGeometry width="160" relative="1" as="geometry">
            <mxPoint x="380.00000000000045" y="470" as="sourcePoint" />
            <mxPoint x="465" y="430" as="targetPoint" />
          </mxGeometry>
        </mxCell>
        <mxCell id="HKkzcW7UrxEy5_cRLz85-8" value="&lt;p class=&quot;p1&quot; style=&quot;margin: 0px; font-variant-numeric: normal; font-variant-east-asian: normal; font-variant-alternates: normal; font-size-adjust: none; font-kerning: auto; font-optical-sizing: auto; font-feature-settings: normal; font-variation-settings: normal; font-variant-position: normal; font-variant-emoji: normal; font-stretch: normal; line-height: normal; font-family: Menlo; color: rgb(11, 79, 121); background-color: rgb(255, 255, 255);&quot;&gt;? ErrorInfoSendable&lt;span class=&quot;s1&quot; style=&quot;color: rgba(0, 0, 0, 0.85);&quot;&gt;&amp;lt;&lt;/span&gt;&lt;span class=&quot;s2&quot; style=&quot;color: rgb(57, 0, 160);&quot;&gt;Key&lt;/span&gt;&lt;span class=&quot;s1&quot; style=&quot;color: rgba(0, 0, 0, 0.85);&quot;&gt;, &lt;/span&gt;&lt;span class=&quot;s2&quot; style=&quot;color: rgb(57, 0, 160);&quot;&gt;Value&lt;/span&gt;&lt;span class=&quot;s1&quot; style=&quot;color: rgba(0, 0, 0, 0.85);&quot;&gt;&amp;gt;&lt;/span&gt;&lt;/p&gt;&lt;p class=&quot;p1&quot; style=&quot;margin: 0px; font-variant-numeric: normal; font-variant-east-asian: normal; font-variant-alternates: normal; font-size-adjust: none; font-kerning: auto; font-optical-sizing: auto; font-feature-settings: normal; font-variation-settings: normal; font-variant-position: normal; font-variant-emoji: normal; font-stretch: normal; line-height: normal; font-family: Menlo; background-color: rgb(255, 255, 255); color: rgb(11, 79, 121);&quot;&gt;&lt;span class=&quot;s1&quot; style=&quot;color: rgba(0, 0, 0, 0.85);&quot;&gt;&lt;span style=&quot;color: rgb(155, 35, 147); text-align: start;&quot; class=&quot;s4&quot;&gt;where&lt;/span&gt;&lt;span style=&quot;color: rgba(0, 0, 0, 0.85); text-align: start;&quot; class=&quot;s1&quot;&gt;&amp;nbsp;&lt;/span&gt;&lt;span style=&quot;color: rgb(57, 0, 160); text-align: start;&quot; class=&quot;s2&quot;&gt;Key&lt;/span&gt;&lt;span style=&quot;text-align: start; color: rgba(0, 0, 0, 0.85);&quot; class=&quot;s1&quot;&gt;&lt;font color=&quot;rgba(0, 0, 0, 0.85)&quot;&gt;:&amp;nbsp;&lt;/font&gt;&lt;font color=&quot;#3900a0&quot;&gt;Sendable, Value&lt;/font&gt;&lt;/span&gt;&lt;/span&gt;&lt;span style=&quot;color: rgba(0, 0, 0, 0.85); text-align: start;&quot; class=&quot;s1&quot;&gt;&lt;font color=&quot;rgba(0, 0, 0, 0.85)&quot;&gt;:&amp;nbsp;&lt;/font&gt;&lt;font color=&quot;#3900a0&quot;&gt;Sendable,&amp;nbsp;&lt;/font&gt;&lt;/span&gt;&lt;/p&gt;" style="rounded=0;whiteSpace=wrap;html=1;fontStyle=1;align=center;" parent="1" vertex="1">
          <mxGeometry x="760" y="520" width="280" height="40" as="geometry" />
        </mxCell>
        <mxCell id="HKkzcW7UrxEy5_cRLz85-9" value="&lt;p class=&quot;p1&quot; style=&quot;margin: 0px; font-variant-numeric: normal; font-variant-east-asian: normal; font-variant-alternates: normal; font-size-adjust: none; font-kerning: auto; font-optical-sizing: auto; font-feature-settings: normal; font-variation-settings: normal; font-variant-position: normal; font-variant-emoji: normal; font-stretch: normal; line-height: normal; font-family: Menlo; color: rgb(11, 79, 121); background-color: rgb(255, 255, 255);&quot;&gt;? ErrorInfoType&lt;span class=&quot;s1&quot; style=&quot;color: rgba(0, 0, 0, 0.85);&quot;&gt;&amp;lt;&lt;/span&gt;&lt;span class=&quot;s2&quot; style=&quot;color: rgb(57, 0, 160);&quot;&gt;Key&lt;/span&gt;&lt;span class=&quot;s1&quot; style=&quot;color: rgba(0, 0, 0, 0.85);&quot;&gt;, &lt;/span&gt;&lt;span class=&quot;s2&quot; style=&quot;color: rgb(57, 0, 160);&quot;&gt;Value&lt;/span&gt;&lt;span class=&quot;s1&quot; style=&quot;color: rgba(0, 0, 0, 0.85);&quot;&gt;&amp;gt;&lt;/span&gt;&lt;/p&gt;&lt;p class=&quot;p1&quot; style=&quot;margin: 0px; font-variant-numeric: normal; font-variant-east-asian: normal; font-variant-alternates: normal; font-size-adjust: none; font-kerning: auto; font-optical-sizing: auto; font-feature-settings: normal; font-variation-settings: normal; font-variant-position: normal; font-variant-emoji: normal; font-stretch: normal; line-height: normal; font-family: Menlo; background-color: rgb(255, 255, 255); color: rgb(11, 79, 121);&quot;&gt;&lt;span class=&quot;s1&quot; style=&quot;color: rgba(0, 0, 0, 0.85);&quot;&gt;&lt;span style=&quot;color: rgb(155, 35, 147); text-align: start;&quot; class=&quot;s4&quot;&gt;where&lt;/span&gt;&lt;span style=&quot;color: rgba(0, 0, 0, 0.85); text-align: start;&quot; class=&quot;s1&quot;&gt;&amp;nbsp;&lt;/span&gt;&lt;span style=&quot;color: rgb(57, 0, 160); text-align: start;&quot; class=&quot;s2&quot;&gt;Key&lt;/span&gt;&lt;span style=&quot;text-align: start; color: rgb(57, 0, 160);&quot; class=&quot;s2&quot;&gt;&lt;font color=&quot;rgba(0, 0, 0, 0.85)&quot;&gt;&amp;nbsp;==&amp;nbsp;&lt;/font&gt;&lt;/span&gt;&lt;/span&gt;&lt;span style=&quot;color: rgb(57, 0, 160); text-align: start;&quot;&gt;String&lt;/span&gt;&lt;span style=&quot;color: rgba(0, 0, 0, 0.85);&quot; class=&quot;s1&quot;&gt;&lt;span style=&quot;color: rgba(0, 0, 0, 0.85); text-align: start;&quot; class=&quot;s1&quot;&gt;&lt;font color=&quot;#3900a0&quot;&gt;, Value ==&lt;/font&gt;&lt;/span&gt;&lt;/span&gt;&lt;span style=&quot;color: rgba(0, 0, 0, 0.85); text-align: start;&quot; class=&quot;s1&quot;&gt;&lt;font color=&quot;rgba(0, 0, 0, 0.85)&quot;&gt;&amp;nbsp;&lt;/font&gt;&lt;font color=&quot;#3900a0&quot;&gt;ErrorInfoValueType,&amp;nbsp;&lt;/font&gt;&lt;/span&gt;&lt;/p&gt;" style="rounded=0;whiteSpace=wrap;html=1;fontStyle=1;align=center;" parent="1" vertex="1">
          <mxGeometry x="190" y="670" width="280" height="50" as="geometry" />
        </mxCell>
        <mxCell id="HKkzcW7UrxEy5_cRLz85-10" value="" style="endArrow=block;startArrow=none;endFill=0;startFill=0;endSize=8;html=1;verticalAlign=bottom;labelBackgroundColor=none;rounded=0;entryX=0.5;entryY=1;entryDx=0;entryDy=0;exitX=0.5;exitY=0;exitDx=0;exitDy=0;" parent="1" source="HKkzcW7UrxEy5_cRLz85-9" target="HKkzcW7UrxEy5_cRLz85-16" edge="1">
          <mxGeometry width="160" relative="1" as="geometry">
            <mxPoint x="290" y="630" as="sourcePoint" />
            <mxPoint x="340" y="570" as="targetPoint" />
          </mxGeometry>
        </mxCell>
        <mxCell id="HKkzcW7UrxEy5_cRLz85-11" value="&lt;p class=&quot;p1&quot; style=&quot;margin: 0px; font-variant-numeric: normal; font-variant-east-asian: normal; font-variant-alternates: normal; font-size-adjust: none; font-kerning: auto; font-optical-sizing: auto; font-feature-settings: normal; font-variation-settings: normal; font-variant-position: normal; font-variant-emoji: normal; font-stretch: normal; line-height: normal; font-family: Menlo; color: rgb(11, 79, 121); background-color: rgb(255, 255, 255);&quot;&gt;? ErrorInfoMergeable&lt;span class=&quot;s1&quot; style=&quot;color: rgba(0, 0, 0, 0.85);&quot;&gt;&amp;lt;&lt;/span&gt;&lt;span class=&quot;s2&quot; style=&quot;color: rgb(57, 0, 160);&quot;&gt;Key&lt;/span&gt;&lt;span class=&quot;s1&quot; style=&quot;color: rgba(0, 0, 0, 0.85);&quot;&gt;, &lt;/span&gt;&lt;span class=&quot;s2&quot; style=&quot;color: rgb(57, 0, 160);&quot;&gt;Value&lt;/span&gt;&lt;span class=&quot;s1&quot; style=&quot;color: rgba(0, 0, 0, 0.85);&quot;&gt;&amp;gt;&lt;/span&gt;&lt;/p&gt;" style="rounded=0;whiteSpace=wrap;html=1;fontStyle=1;align=center;" parent="1" vertex="1">
          <mxGeometry x="760" y="440" width="280" height="40" as="geometry" />
        </mxCell>
        <mxCell id="HKkzcW7UrxEy5_cRLz85-12" value="" style="endArrow=block;startArrow=none;endFill=0;startFill=0;endSize=8;html=1;verticalAlign=bottom;labelBackgroundColor=none;rounded=0;entryX=0;entryY=0.5;entryDx=0;entryDy=0;exitX=0.5;exitY=0;exitDx=0;exitDy=0;" parent="1" source="HKkzcW7UrxEy5_cRLz85-9" target="HKkzcW7UrxEy5_cRLz85-8" edge="1">
          <mxGeometry width="160" relative="1" as="geometry">
            <mxPoint x="310" y="740" as="sourcePoint" />
            <mxPoint x="490" y="610" as="targetPoint" />
          </mxGeometry>
        </mxCell>
        <mxCell id="HKkzcW7UrxEy5_cRLz85-13" value="" style="endArrow=block;startArrow=none;endFill=0;startFill=0;endSize=8;html=1;verticalAlign=bottom;labelBackgroundColor=none;rounded=0;entryX=0;entryY=0.5;entryDx=0;entryDy=0;exitX=0.5;exitY=0;exitDx=0;exitDy=0;opacity=20;" parent="1" source="HKkzcW7UrxEy5_cRLz85-9" target="HKkzcW7UrxEy5_cRLz85-11" edge="1">
          <mxGeometry width="160" relative="1" as="geometry">
            <mxPoint x="570" y="770" as="sourcePoint" />
            <mxPoint x="750" y="640" as="targetPoint" />
          </mxGeometry>
        </mxCell>
        <mxCell id="HKkzcW7UrxEy5_cRLz85-14" value="&lt;p class=&quot;p1&quot; style=&quot;margin: 0px; font-variant-numeric: normal; font-variant-east-asian: normal; font-variant-alternates: normal; font-size-adjust: none; font-kerning: auto; font-optical-sizing: auto; font-feature-settings: normal; font-variation-settings: normal; font-variant-position: normal; font-variant-emoji: normal; font-stretch: normal; line-height: normal; font-family: Menlo; color: rgb(11, 79, 121); background-color: rgb(255, 255, 255);&quot;&gt;? Sequence&lt;/p&gt;" style="rounded=0;whiteSpace=wrap;html=1;fontStyle=1;align=center;" parent="1" vertex="1">
          <mxGeometry x="400" y="-10" width="280" height="40" as="geometry" />
        </mxCell>
        <mxCell id="HKkzcW7UrxEy5_cRLz85-15" value="" style="endArrow=block;startArrow=none;endFill=0;startFill=0;endSize=8;html=1;verticalAlign=bottom;labelBackgroundColor=none;rounded=0;entryX=0.5;entryY=1;entryDx=0;entryDy=0;exitX=0.5;exitY=0;exitDx=0;exitDy=0;opacity=20;" parent="1" source="HKkzcW7UrxEy5_cRLz85-1" target="HKkzcW7UrxEy5_cRLz85-14" edge="1">
          <mxGeometry width="160" relative="1" as="geometry">
            <mxPoint x="610" y="570" as="sourcePoint" />
            <mxPoint x="960" y="460" as="targetPoint" />
          </mxGeometry>
        </mxCell>
        <mxCell id="HKkzcW7UrxEy5_cRLz85-16" value="&lt;p class=&quot;p1&quot; style=&quot;text-align: start; margin: 0px; font-variant-numeric: normal; font-variant-east-asian: normal; font-variant-alternates: normal; font-size-adjust: none; font-kerning: auto; font-optical-sizing: auto; font-feature-settings: normal; font-variation-settings: normal; font-variant-position: normal; font-variant-emoji: normal; font-stretch: normal; line-height: normal; font-family: Menlo; color: rgb(11, 79, 121); background-color: rgb(255, 255, 255);&quot;&gt;Extension&lt;/p&gt;&lt;p class=&quot;p1&quot; style=&quot;margin: 0px; font-variant-numeric: normal; font-variant-east-asian: normal; font-variant-alternates: normal; font-size-adjust: none; font-kerning: auto; font-optical-sizing: auto; font-feature-settings: normal; font-variation-settings: normal; font-variant-position: normal; font-variant-emoji: normal; font-stretch: normal; line-height: normal; font-family: Menlo; background-color: rgb(255, 255, 255); color: rgb(11, 79, 121);&quot;&gt;&lt;span style=&quot;color: rgb(155, 35, 147); text-align: start;&quot; class=&quot;s4&quot;&gt;&lt;span&gt;where&lt;/span&gt;&lt;/span&gt;&lt;span style=&quot;color: rgba(0, 0, 0, 0.85); text-align: start;&quot; class=&quot;s1&quot;&gt; &lt;/span&gt;&lt;span style=&quot;color: rgb(57, 0, 160); text-align: start;&quot; class=&quot;s2&quot;&gt;Key&lt;/span&gt;&lt;span style=&quot;text-align: start; color: rgb(57, 0, 160);&quot; class=&quot;s2&quot;&gt;&lt;font color=&quot;#ba0085&quot;&gt;&amp;nbsp;==&amp;nbsp;&lt;/font&gt;&lt;/span&gt;&lt;span style=&quot;color: rgb(57, 0, 160); text-align: start;&quot;&gt;String&lt;/span&gt;&lt;/p&gt;" style="rounded=0;whiteSpace=wrap;html=1;fontStyle=1;align=center;" parent="1" vertex="1">
          <mxGeometry x="20" y="560" width="280" height="40" as="geometry" />
        </mxCell>
        <mxCell id="HKkzcW7UrxEy5_cRLz85-18" value="" style="endArrow=block;startArrow=none;endFill=0;startFill=0;endSize=8;html=1;verticalAlign=bottom;labelBackgroundColor=none;rounded=0;entryX=0.5;entryY=1;entryDx=0;entryDy=0;exitX=0.5;exitY=0;exitDx=0;exitDy=0;" parent="1" source="HKkzcW7UrxEy5_cRLz85-9" edge="1">
          <mxGeometry width="160" relative="1" as="geometry">
            <mxPoint x="550" y="660" as="sourcePoint" />
            <mxPoint x="380.00000000000045" y="510" as="targetPoint" />
          </mxGeometry>
        </mxCell>
        <mxCell id="HKkzcW7UrxEy5_cRLz85-19" value="" style="endArrow=block;startArrow=none;endFill=0;startFill=0;endSize=8;html=1;verticalAlign=bottom;labelBackgroundColor=none;rounded=0;exitX=1;exitY=0.5;exitDx=0;exitDy=0;entryX=0;entryY=0.25;entryDx=0;entryDy=0;" parent="1" source="HKkzcW7UrxEy5_cRLz85-2" target="HKkzcW7UrxEy5_cRLz85-11" edge="1">
          <mxGeometry width="160" relative="1" as="geometry">
            <mxPoint x="760" y="500" as="sourcePoint" />
            <mxPoint x="720" y="460" as="targetPoint" />
          </mxGeometry>
        </mxCell>
        <mxCell id="HKkzcW7UrxEy5_cRLz85-20" value="?" style="edgeLabel;html=1;align=center;verticalAlign=middle;resizable=0;points=[];fontSize=12;" parent="HKkzcW7UrxEy5_cRLz85-19" vertex="1" connectable="0">
          <mxGeometry x="0.1724" relative="1" as="geometry">
            <mxPoint as="offset" />
          </mxGeometry>
        </mxCell>
        <mxCell id="HKkzcW7UrxEy5_cRLz85-23" value="" style="endArrow=block;startArrow=none;endFill=0;startFill=0;endSize=8;html=1;verticalAlign=bottom;labelBackgroundColor=none;rounded=0;entryX=0.5;entryY=1;entryDx=0;entryDy=0;exitX=0.5;exitY=0;exitDx=0;exitDy=0;" parent="1" source="HKkzcW7UrxEy5_cRLz85-21" target="HKkzcW7UrxEy5_cRLz85-9" edge="1">
          <mxGeometry width="160" relative="1" as="geometry">
            <mxPoint x="590" y="1000" as="sourcePoint" />
            <mxPoint x="640" y="840" as="targetPoint" />
          </mxGeometry>
        </mxCell>
        <mxCell id="HKkzcW7UrxEy5_cRLz85-26" value="&lt;p style=&quot;margin: 0px; font-variant-numeric: normal; font-variant-east-asian: normal; font-variant-alternates: normal; font-size-adjust: none; font-kerning: auto; font-optical-sizing: auto; font-feature-settings: normal; font-variation-settings: normal; font-variant-position: normal; font-variant-emoji: normal; font-stretch: normal; line-height: normal; font-family: Menlo; color: rgb(11, 79, 121); background-color: rgb(255, 255, 255); text-align: start;&quot; class=&quot;p1&quot;&gt;StaticStringKeyErrorInfo&lt;/p&gt;" style="rounded=0;whiteSpace=wrap;html=1;fontStyle=1;align=center;" parent="1" vertex="1">
          <mxGeometry x="800" y="640" width="280" height="40" as="geometry" />
        </mxCell>
        <mxCell id="HKkzcW7UrxEy5_cRLz85-27" value="&lt;p style=&quot;margin: 0px; font-variant-numeric: normal; font-variant-east-asian: normal; font-variant-alternates: normal; font-size-adjust: none; font-kerning: auto; font-optical-sizing: auto; font-feature-settings: normal; font-variation-settings: normal; font-variant-position: normal; font-variant-emoji: normal; font-stretch: normal; line-height: normal; font-family: Menlo; color: rgb(11, 79, 121); background-color: rgb(255, 255, 255); text-align: start;&quot; class=&quot;p1&quot;&gt;IntegerKeyErrorInfo&lt;/p&gt;" style="rounded=0;whiteSpace=wrap;html=1;fontStyle=1;align=center;" parent="1" vertex="1">
          <mxGeometry x="1120" y="800" width="280" height="40" as="geometry" />
        </mxCell>
        <mxCell id="HKkzcW7UrxEy5_cRLz85-28" value="&lt;p style=&quot;margin: 0px; font-variant-numeric: normal; font-variant-east-asian: normal; font-variant-alternates: normal; font-size-adjust: none; font-kerning: auto; font-optical-sizing: auto; font-feature-settings: normal; font-variation-settings: normal; font-variant-position: normal; font-variant-emoji: normal; font-stretch: normal; line-height: normal; font-family: Menlo; color: rgb(11, 79, 121); background-color: rgb(255, 255, 255); text-align: start;&quot; class=&quot;p1&quot;&gt;MultiValueErrorInfo&lt;/p&gt;" style="rounded=0;whiteSpace=wrap;html=1;fontStyle=1;align=center;" parent="1" vertex="1">
          <mxGeometry x="800" y="800" width="280" height="40" as="geometry" />
        </mxCell>
        <mxCell id="HKkzcW7UrxEy5_cRLz85-30" value="&lt;p style=&quot;margin: 0px; font-variant-numeric: normal; font-variant-east-asian: normal; font-variant-alternates: normal; font-size-adjust: none; font-kerning: auto; font-optical-sizing: auto; font-feature-settings: normal; font-variation-settings: normal; font-variant-position: normal; font-variant-emoji: normal; font-stretch: normal; line-height: normal; font-family: Menlo; color: rgb(11, 79, 121); background-color: rgb(255, 255, 255); text-align: start;&quot; class=&quot;p1&quot;&gt;CustomKeyErrorInfo&lt;/p&gt;" style="rounded=0;whiteSpace=wrap;html=1;fontStyle=1;align=center;" parent="1" vertex="1">
          <mxGeometry x="1120" y="640" width="280" height="40" as="geometry" />
        </mxCell>
        <mxCell id="HKkzcW7UrxEy5_cRLz85-31" value="&lt;p style=&quot;margin: 0px; font-variant-numeric: normal; font-variant-east-asian: normal; font-variant-alternates: normal; font-size-adjust: none; font-kerning: auto; font-optical-sizing: auto; font-feature-settings: normal; font-variation-settings: normal; font-variant-position: normal; font-variant-emoji: normal; font-stretch: normal; line-height: normal; font-family: Menlo; color: rgb(11, 79, 121); background-color: rgb(255, 255, 255); text-align: start;&quot; class=&quot;p1&quot;&gt;_ErrorInfoGenericStorage&lt;/p&gt;" style="rounded=0;whiteSpace=wrap;html=1;fontStyle=1;align=center;" parent="1" vertex="1">
          <mxGeometry x="1420" y="640" width="280" height="40" as="geometry" />
        </mxCell>
        <mxCell id="HKkzcW7UrxEy5_cRLz85-32" value="&lt;p style=&quot;margin: 0px; font-variant-numeric: normal; font-variant-east-asian: normal; font-variant-alternates: normal; font-size-adjust: none; font-kerning: auto; font-optical-sizing: auto; font-feature-settings: normal; font-variation-settings: normal; font-variant-position: normal; font-variant-emoji: normal; font-stretch: normal; line-height: normal; font-family: Menlo; color: rgb(11, 79, 121); background-color: rgb(255, 255, 255); text-align: start;&quot; class=&quot;p1&quot;&gt;_ErrorInfoGenericValue&lt;/p&gt;" style="rounded=0;whiteSpace=wrap;html=1;fontStyle=1;align=center;" parent="1" vertex="1">
          <mxGeometry x="1420" y="700" width="280" height="40" as="geometry" />
        </mxCell>
        <mxCell id="HKkzcW7UrxEy5_cRLz85-33" value="&lt;p style=&quot;margin: 0px; font-variant-numeric: normal; font-variant-east-asian: normal; font-variant-alternates: normal; font-size-adjust: none; font-kerning: auto; font-optical-sizing: auto; font-feature-settings: normal; font-variation-settings: normal; font-variant-position: normal; font-variant-emoji: normal; font-stretch: normal; line-height: normal; font-family: Menlo; color: rgb(11, 79, 121); background-color: rgb(255, 255, 255); text-align: start;&quot; class=&quot;p1&quot;&gt;LegacyErrorInfo&lt;/p&gt;" style="rounded=0;whiteSpace=wrap;html=1;fontStyle=1;align=center;" parent="1" vertex="1">
          <mxGeometry x="1120" y="710" width="280" height="40" as="geometry" />
        </mxCell>
        <mxCell id="98ebtHduN7LsA4Vc1z-6-1" value="Add&lt;div&gt;&lt;span style=&quot;background-color: transparent; color: light-dark(rgb(0, 0, 0), rgb(255, 255, 255));&quot;&gt;Key Prefix&lt;/span&gt;&lt;/div&gt;" style="rounded=1;whiteSpace=wrap;html=1;fontStyle=1" parent="1" vertex="1">
          <mxGeometry x="330" y="850" width="120" height="40" as="geometry" />
        </mxCell>
        <mxCell id="98ebtHduN7LsA4Vc1z-6-3" value="Add Resolving&lt;div&gt;Collisions&lt;/div&gt;" style="rounded=1;whiteSpace=wrap;html=1;fontStyle=1" parent="1" vertex="1">
          <mxGeometry x="440" y="960" width="120" height="40" as="geometry" />
        </mxCell>
        <mxCell id="HKkzcW7UrxEy5_cRLz85-21" value="&lt;p class=&quot;p1&quot; style=&quot;margin: 0px; font-variant-numeric: normal; font-variant-east-asian: normal; font-variant-alternates: normal; font-size-adjust: none; font-kerning: auto; font-optical-sizing: auto; font-feature-settings: normal; font-variation-settings: normal; font-variant-position: normal; font-variant-emoji: normal; font-stretch: normal; line-height: normal; font-family: Menlo; color: rgb(11, 79, 121);&quot;&gt;&lt;span&gt;ErrorInfo&lt;/span&gt;&lt;/p&gt;" style="rounded=0;whiteSpace=wrap;html=1;fontStyle=1;align=center;" parent="1" vertex="1">
          <mxGeometry x="-120" y="840" width="280" height="40" as="geometry" />
        </mxCell>
        <mxCell id="HKkzcW7UrxEy5_cRLz85-22" value="&lt;p class=&quot;p1&quot; style=&quot;margin: 0px; font-variant-numeric: normal; font-variant-east-asian: normal; font-variant-alternates: normal; font-size-adjust: none; font-kerning: auto; font-optical-sizing: auto; font-feature-settings: normal; font-variation-settings: normal; font-variant-position: normal; font-variant-emoji: normal; font-stretch: normal; line-height: normal; font-family: Menlo; color: rgb(11, 79, 121);&quot;&gt;&lt;span&gt;UnorderedErrorInfo&lt;/span&gt;&lt;/p&gt;" style="rounded=0;whiteSpace=wrap;html=1;fontStyle=1;align=center;" parent="1" vertex="1">
          <mxGeometry x="-120" y="890" width="280" height="40" as="geometry" />
        </mxCell>
        <mxCell id="98ebtHduN7LsA4Vc1z-6-4" value="&lt;p class=&quot;p1&quot; style=&quot;margin: 0px; font-variant-numeric: normal; font-variant-east-asian: normal; font-variant-alternates: normal; font-size-adjust: none; font-kerning: auto; font-optical-sizing: auto; font-feature-settings: normal; font-variation-settings: normal; font-variant-position: normal; font-variant-emoji: normal; font-stretch: normal; line-height: normal; font-family: Menlo; color: rgb(11, 79, 121); background-color: rgb(255, 255, 255);&quot;&gt;LegacyErrorInfo&lt;/p&gt;" style="rounded=0;whiteSpace=wrap;html=1;fontStyle=1;align=center;" parent="1" vertex="1">
          <mxGeometry x="-310" y="640" width="280" height="40" as="geometry" />
        </mxCell>
        <mxCell id="98ebtHduN7LsA4Vc1z-6-5" value="" style="endArrow=none;html=1;rounded=0;entryX=0.25;entryY=1;entryDx=0;entryDy=0;exitX=0.5;exitY=0;exitDx=0;exitDy=0;" parent="1" source="HKkzcW7UrxEy5_cRLz85-16" edge="1">
          <mxGeometry width="50" height="50" relative="1" as="geometry">
            <mxPoint x="80" y="700" as="sourcePoint" />
            <mxPoint x="310" y="510" as="targetPoint" />
          </mxGeometry>
        </mxCell>
        <mxCell id="6rGpFMpeR2C873tYcExH-3" value="&lt;p style=&quot;font-variant-numeric: normal; font-variant-east-asian: normal; font-variant-alternates: normal; font-size-adjust: none; font-kerning: auto; font-optical-sizing: auto; font-feature-settings: normal; font-variation-settings: normal; font-variant-position: normal; font-variant-emoji: normal; font-weight: 700; font-stretch: normal; line-height: normal; font-family: Menlo; margin: 0px; color: rgb(11, 79, 121); background-color: rgb(255, 255, 255);&quot; class=&quot;p1&quot;&gt;ErrorInfo&lt;/p&gt;&lt;p style=&quot;font-variant-numeric: normal; font-variant-east-asian: normal; font-variant-alternates: normal; font-size-adjust: none; font-kerning: auto; font-optical-sizing: auto; font-feature-settings: normal; font-variation-settings: normal; font-variant-position: normal; font-variant-emoji: normal; font-weight: 700; font-stretch: normal; line-height: normal; font-family: Menlo; margin: 0px; color: rgb(11, 79, 121); background-color: rgb(255, 255, 255);&quot; class=&quot;p1&quot;&gt;CollisionsResolving&lt;/p&gt;&lt;p style=&quot;font-variant-numeric: normal; font-variant-east-asian: normal; font-variant-alternates: normal; font-size-adjust: none; font-kerning: auto; font-optical-sizing: auto; font-feature-settings: normal; font-variation-settings: normal; font-variant-position: normal; font-variant-emoji: normal; font-weight: 700; font-stretch: normal; line-height: normal; font-family: Menlo; margin: 0px; color: rgb(11, 79, 121); background-color: rgb(255, 255, 255);&quot; class=&quot;p1&quot;&gt;By Augmented Key&lt;/p&gt;" style="shape=parallelogram;perimeter=parallelogramPerimeter;whiteSpace=wrap;html=1;fixedSize=1;size=10;strokeColor=#FF8000;" parent="1" vertex="1">
          <mxGeometry x="-140" y="340" width="230" height="60" as="geometry" />
        </mxCell>
        <mxCell id="6rGpFMpeR2C873tYcExH-4" value="&lt;p style=&quot;font-variant-numeric: normal; font-variant-east-asian: normal; font-variant-alternates: normal; font-size-adjust: none; font-kerning: auto; font-optical-sizing: auto; font-feature-settings: normal; font-variation-settings: normal; font-variant-position: normal; font-variant-emoji: normal; font-weight: 700; font-stretch: normal; line-height: normal; font-family: Menlo; margin: 0px; color: rgb(11, 79, 121); background-color: rgb(255, 255, 255);&quot; class=&quot;p1&quot;&gt;ErrorInfo&lt;/p&gt;&lt;p style=&quot;font-variant-numeric: normal; font-variant-east-asian: normal; font-variant-alternates: normal; font-size-adjust: none; font-kerning: auto; font-optical-sizing: auto; font-feature-settings: normal; font-variation-settings: normal; font-variant-position: normal; font-variant-emoji: normal; font-weight: 700; font-stretch: normal; line-height: normal; font-family: Menlo; margin: 0px; color: rgb(11, 79, 121); background-color: rgb(255, 255, 255);&quot; class=&quot;p1&quot;&gt;CollisionsResolving&lt;/p&gt;&lt;p style=&quot;font-variant-numeric: normal; font-variant-east-asian: normal; font-variant-alternates: normal; font-size-adjust: none; font-kerning: auto; font-optical-sizing: auto; font-feature-settings: normal; font-variation-settings: normal; font-variant-position: normal; font-variant-emoji: normal; font-weight: 700; font-stretch: normal; line-height: normal; font-family: Menlo; margin: 0px; color: rgb(11, 79, 121); background-color: rgb(255, 255, 255);&quot; class=&quot;p1&quot;&gt;By MultipleValues&lt;/p&gt;" style="shape=parallelogram;perimeter=parallelogramPerimeter;whiteSpace=wrap;html=1;fixedSize=1;size=10;strokeColor=#FF8000;" parent="1" vertex="1">
          <mxGeometry x="800" y="340" width="230" height="60" as="geometry" />
        </mxCell>
        <mxCell id="-h85xTF8Ryz1jiy9FUZk-2" value="&lt;p class=&quot;p1&quot; style=&quot;margin: 0px; font-variant-numeric: normal; font-variant-east-asian: normal; font-variant-alternates: normal; font-size-adjust: none; font-kerning: auto; font-optical-sizing: auto; font-feature-settings: normal; font-variation-settings: normal; font-variant-position: normal; font-variant-emoji: normal; font-stretch: normal; line-height: normal; font-family: Menlo; color: rgb(11, 79, 121); background-color: rgb(255, 255, 255);&quot;&gt;&lt;span class=&quot;s1&quot; style=&quot;color: rgba(0, 0, 0, 0.85);&quot;&gt;&lt;span style=&quot;color: rgb(11, 79, 121); text-align: start;&quot;&gt;ErrorInfoPartialCollection&lt;/span&gt;&amp;lt;&lt;/span&gt;&lt;span class=&quot;s2&quot; style=&quot;color: rgb(57, 0, 160);&quot;&gt;Key&lt;/span&gt;&lt;span class=&quot;s1&quot; style=&quot;color: rgba(0, 0, 0, 0.85);&quot;&gt;, &lt;/span&gt;&lt;span class=&quot;s2&quot; style=&quot;color: rgb(57, 0, 160);&quot;&gt;Value&lt;/span&gt;&lt;span class=&quot;s1&quot; style=&quot;color: rgba(0, 0, 0, 0.85);&quot;&gt;&amp;gt;&lt;/span&gt;&lt;/p&gt;" style="rounded=0;whiteSpace=wrap;html=1;fontStyle=1;align=center;" vertex="1" parent="1">
          <mxGeometry x="560" y="240" width="280" height="40" as="geometry" />
        </mxCell>
        <mxCell id="-h85xTF8Ryz1jiy9FUZk-4" value="" style="endArrow=block;startArrow=none;endFill=0;startFill=0;endSize=8;html=1;verticalAlign=bottom;labelBackgroundColor=none;rounded=0;entryX=1;entryY=1;entryDx=0;entryDy=0;exitX=0.5;exitY=0;exitDx=0;exitDy=0;" edge="1" parent="1" source="-h85xTF8Ryz1jiy9FUZk-2" target="HKkzcW7UrxEy5_cRLz85-1">
          <mxGeometry width="160" relative="1" as="geometry">
            <mxPoint x="630" y="380" as="sourcePoint" />
            <mxPoint x="670" y="300" as="targetPoint" />
          </mxGeometry>
        </mxCell>
        <mxCell id="98ebtHduN7LsA4Vc1z-6-2" value="Merge" style="rounded=1;whiteSpace=wrap;html=1;fontStyle=1" parent="1" vertex="1">
          <mxGeometry x="330" y="930" width="120" height="40" as="geometry" />
        </mxCell>
      </root>
    </mxGraphModel>
  </diagram>
</mxfile>
